# xmcd CD database file
#
# Track frame offsets:
#	150
#	13408
#	33319
#	49528
#	65342
#	87327
#	110681
#	134274
#	159830
#	180698
#
# Disc length: 2788 seconds
#
# Revision: 5
# Processed by: cddbd v1.5.2PL0 Copyright (c) Steve Scherf et al.
# Submitted via: CDex 1.81
#
DISCID=7e0ae20a
DTITLE=?????? - Beautiful Energy (disc1)
DYEAR=2004
DGENRE=New Age
TTITLE0=Miracle
TTITLE1=Freedom
TTITLE2=Chase
TTITLE3=I Cant Be Your Man
TTITLE4=Hang Rila
TTITLE5=No Word
TTITLE6=Spirit Dance
TTITLE7=Mountains and Rivers
TTITLE8=Take Five
TTITLE9=Liu San Jie
EXTD=YEAR: 2004
EXTT0=
EXTT1=
EXTT2=
EXTT3=
EXTT4=
EXTT5=
EXTT6=
EXTT7=
EXTT8=
EXTT9=
PLAYORDER=
